<?xml version="1.0"?>
<svg xmlns="http://www.w3.org/2000/svg" xmlns:xlink="http://www.w3.org/1999/xlink" version="1.1" xml:space="preserve">
  <defs>
    <symbol id="email" width="100%" height="100%" viewBox="0 0 25 24" fill="none">
      <path fill-rule="evenodd" clip-rule="evenodd" d="M3.83823 5.17157C2.66666 6.34315 2.66666 8.22876 2.66666 12C2.66666 15.7712 2.66666 17.6569 3.83823 18.8284C5.0098 20 6.89542 20 10.6667 20H14.6667C18.4379 20 20.3235 20 21.4951 18.8284C22.6667 17.6569 22.6667 15.7712 22.6667 12C22.6667 8.22876 22.6667 6.34315 21.4951 5.17157C20.3235 4 18.4379 4 14.6667 4H10.6667C6.89542 4 5.0098 4 3.83823 5.17157ZM19.2428 7.51986C19.508 7.83807 19.465 8.31099 19.1468 8.57617L16.9503 10.4066C16.064 11.1452 15.3455 11.7439 14.7115 12.1517C14.051 12.5765 13.4077 12.8449 12.6667 12.8449C11.9256 12.8449 11.2823 12.5765 10.6218 12.1517C9.98777 11.7439 9.26937 11.1452 8.38301 10.4066L6.18652 8.57617C5.86831 8.31099 5.82532 7.83807 6.09049 7.51986C6.35566 7.20165 6.82859 7.15866 7.14679 7.42383L9.30569 9.22291C10.2386 10.0004 10.8864 10.5384 11.4332 10.8901C11.9626 11.2306 12.3216 11.3449 12.6667 11.3449C13.0117 11.3449 13.3707 11.2306 13.9001 10.8901C14.4469 10.5384 15.0947 10.0004 16.0276 9.22291L18.1865 7.42383C18.5047 7.15866 18.9776 7.20165 19.2428 7.51986Z" fill="currentColor" />
    </symbol>
    <symbol id="phone" width="100%" height="100%" viewBox="0 0 22 22" fill="none">
      <path d="M0.599998 1.9001C0.599998 1.18213 1.18203 0.600098 1.9 0.600098H4.69873C5.33422 0.600098 5.87657 1.05953 5.98105 1.68638L6.94215 7.45301C7.03597 8.01596 6.75167 8.57426 6.24122 8.82949L4.22864 9.83578C5.67982 13.4419 8.55818 16.3203 12.1643 17.7715L13.1706 15.7589C13.4258 15.2484 13.9841 14.9641 14.5471 15.0579L20.3137 16.019C20.9406 16.1235 21.4 16.6659 21.4 17.3014V20.1001C21.4 20.8181 20.818 21.4001 20.1 21.4001H17.5C8.16639 21.4001 0.599998 13.8337 0.599998 4.5001V1.9001Z" fill="currentColor" />
    </symbol>

    <symbol id="menu" width="100%" height="100%" viewBox="0 0 32 32" fill="none">
      <path fill-rule="evenodd" clip-rule="evenodd" d="M27.6666 9.3335C27.6666 9.88578 27.2189 10.3335 26.6666 10.3335L5.33329 10.3335C4.78101 10.3335 4.33329 9.88578 4.33329 9.3335C4.33329 8.78121 4.78101 8.3335 5.33329 8.3335L26.6666 8.3335C27.2189 8.3335 27.6666 8.78121 27.6666 9.3335Z" fill="currentColor" />
      <path fill-rule="evenodd" clip-rule="evenodd" d="M27.6666 16C27.6666 16.5523 27.2189 17 26.6666 17L5.33329 17C4.78101 17 4.33329 16.5523 4.33329 16C4.33329 15.4477 4.78101 15 5.33329 15L26.6666 15C27.2189 15 27.6666 15.4477 27.6666 16Z" fill="currentColor" />
      <path fill-rule="evenodd" clip-rule="evenodd" d="M27.6666 22.6665C27.6666 23.2188 27.2189 23.6665 26.6666 23.6665L5.33329 23.6665C4.78101 23.6665 4.33329 23.2188 4.33329 22.6665C4.33329 22.1142 4.78101 21.6665 5.33329 21.6665L26.6666 21.6665C27.2189 21.6665 27.6666 22.1142 27.6666 22.6665Z" fill="currentColor" />
    </symbol>
    <symbol id="arrow-right" width="100%" height="100%" viewBox="0 0 15 10" fill="none">
      <path d="M13 5L13.7071 4.29289L14.4142 5L13.7071 5.70711L13 5ZM1 6C0.447715 6 0 5.55228 0 5C0 4.44772 0.447715 4 1 4V6ZM9.70711 0.292893L13.7071 4.29289L12.2929 5.70711L8.29289 1.70711L9.70711 0.292893ZM13.7071 5.70711L9.70711 9.70711L8.29289 8.29289L12.2929 4.29289L13.7071 5.70711ZM13 6H1V4H13V6Z" fill="currentColor" />
    </symbol>
    <symbol id="arrow-left" width="100%" height="100%" viewBox="0 0 15 10" fill="none">
      <path d="M2 5L1.29289 4.29289L0.585786 5L1.29289 5.70711L2 5ZM14 6C14.5523 6 15 5.55228 15 5C15 4.44772 14.5523 4 14 4V6ZM5.29289 0.292893L1.29289 4.29289L2.70711 5.70711L6.70711 1.70711L5.29289 0.292893ZM1.29289 5.70711L5.29289 9.70711L6.70711 8.29289L2.70711 4.29289L1.29289 5.70711ZM2 6H14V4H2V6Z" fill="currentColor" />
    </symbol>
    <symbol id="gal-ochka" width="100%" height="100%" viewBox="0 0 12 10" fill="none">
      <path d="M6.23497 8.79946C5.9649 9.16602 5.54433 9.3913 5.0896 9.41369C4.63487 9.43632 4.19445 9.25304 3.88975 8.91464L1.15929 5.88456C0.725328 5.40328 0.763876 4.6614 1.24515 4.22744C1.72689 3.79348 2.46831 3.83226 2.90227 4.31377L4.83407 6.45771C4.8627 6.48956 4.90425 6.50664 4.94695 6.50456C4.98988 6.50249 5.02912 6.48102 5.05475 6.44686L9.02546 1.0614C9.40979 0.539728 10.1443 0.428699 10.6662 0.813259C11.1876 1.19782 11.2984 1.93232 10.9139 2.45376L6.23497 8.79946Z" fill="currentColor" />
    </symbol>
    <symbol id="to-right" width="100%" height="100%" viewBox="0 0 8 14" fill="none">
      <path d="M5.63663 7.00019L1.15148 2.51504C0.7935 2.15706 0.7935 1.57666 1.15148 1.21868C1.50946 0.8607 2.08986 0.8607 2.44784 1.21868L7.58118 6.35201C7.93916 6.70999 7.93916 7.29039 7.58118 7.64838L2.44784 12.7817C2.08986 13.1397 1.50946 13.1397 1.15148 12.7817C0.7935 12.4237 0.7935 11.8433 1.15148 11.4853L5.63663 7.00019Z" fill="currentColor" />
    </symbol>
    <symbol id="to-left" width="100%" height="100%" viewBox="0 0 8 14" fill="none">
      <path d="M2.36337 7.00019L6.84852 2.51504C7.2065 2.15706 7.2065 1.57666 6.84852 1.21868C6.49054 0.8607 5.91014 0.8607 5.55216 1.21868L0.418823 6.35201C0.0608425 6.70999 0.0608425 7.29039 0.418823 7.64838L5.55216 12.7817C5.91014 13.1397 6.49054 13.1397 6.84852 12.7817C7.2065 12.4237 7.2065 11.8433 6.84852 11.4853L2.36337 7.00019Z" fill="currentColor" />
    </symbol>
    <symbol id="play" width="100%" height="100%" viewBox="0 0 32 38" fill="none">
      <path d="M5.27275 38C4.93519 38 4.61146 37.8332 4.37278 37.5363C4.13409 37.2393 4 36.8366 4 36.4167V1.58307C4.00004 1.30794 4.05771 1.03756 4.16732 0.79859C4.27694 0.559623 4.43472 0.360315 4.62511 0.220312C4.81551 0.0803081 5.03194 0.00444103 5.25308 0.000189119C5.47422 -0.00406279 5.69243 0.0634472 5.88621 0.196064L31.3411 17.6129C31.5407 17.7495 31.7071 17.9503 31.823 18.1943C31.9389 18.4383 32 18.7165 32 18.9999C32 19.2833 31.9389 19.5615 31.823 19.8054C31.7071 20.0494 31.5407 20.2502 31.3411 20.3869L5.88621 37.8037C5.69829 37.9324 5.48727 37.9999 5.27275 38Z" fill="currentColor" />
    </symbol>
    <symbol id="cross" width="100%" height="100%" viewBox="0 0 16 16" fill="none">
      <path d="M1 15L15 1M1 1L15 15" fill="none" stroke="currentColor" stroke-width="2" stroke-linecap="round" stroke-linejoin="round" />
    </symbol>
    <symbol id="circle-cross" width="100%" height="100%" viewBox="0 0 32 32" fill="none">
      <circle cx="16" cy="15.9998" r="13.3333" stroke="currentColor" stroke-width="1.5" />
      <path d="M19.3333 12.6665L12.6666 19.3332M12.6666 12.6665L19.3332 19.3331" stroke="currentColor" stroke-width="1.5" stroke-linecap="round" />

    </symbol>
    <symbol id="user-id" width="100%" height="100%" viewBox="0 0 24 24" fill="none">
      <path fill-rule="evenodd" clip-rule="evenodd" d="M10 4H14C17.7712 4 19.6569 4 20.8284 5.17157C22 6.34315 22 8.22876 22 12C22 15.7712 22 17.6569 20.8284 18.8284C19.6569 20 17.7712 20 14 20H10C6.22876 20 4.34315 20 3.17157 18.8284C2 17.6569 2 15.7712 2 12C2 8.22876 2 6.34315 3.17157 5.17157C4.34315 4 6.22876 4 10 4ZM13.25 9C13.25 8.58579 13.5858 8.25 14 8.25H19C19.4142 8.25 19.75 8.58579 19.75 9C19.75 9.41421 19.4142 9.75 19 9.75H14C13.5858 9.75 13.25 9.41421 13.25 9ZM14.25 12C14.25 11.5858 14.5858 11.25 15 11.25H19C19.4142 11.25 19.75 11.5858 19.75 12C19.75 12.4142 19.4142 12.75 19 12.75H15C14.5858 12.75 14.25 12.4142 14.25 12ZM15.25 15C15.25 14.5858 15.5858 14.25 16 14.25H19C19.4142 14.25 19.75 14.5858 19.75 15C19.75 15.4142 19.4142 15.75 19 15.75H16C15.5858 15.75 15.25 15.4142 15.25 15ZM11 9C11 10.1046 10.1046 11 9 11C7.89543 11 7 10.1046 7 9C7 7.89543 7.89543 7 9 7C10.1046 7 11 7.89543 11 9ZM9 17C13 17 13 16.1046 13 15C13 13.8954 11.2091 13 9 13C6.79086 13 5 13.8954 5 15C5 16.1046 5 17 9 17Z" fill="currentColor" />
    </symbol>
    <symbol id="message-dialog" width="100%" height="100%" viewBox="0 0 32 32" fill="none">
      <path d="M29.3334 11.3332C29.3334 6.5467 25.4532 2.6665 20.6667 2.6665C17.8895 2.6665 15.4175 3.97624 13.8314 6.00945C20.5961 6.27099 26 11.8377 26 18.6665C26 18.8136 25.9975 18.9601 25.9925 19.106L26.4356 19.2245C27.724 19.5692 28.9027 18.3905 28.558 17.102L28.3882 16.4673C28.251 15.9546 28.3335 15.4129 28.554 14.9301C29.0545 13.8345 29.3334 12.6164 29.3334 11.3332Z" fill="currentColor" />
      <path fill-rule="evenodd" clip-rule="evenodd" d="M24 18.6665C24 24.5575 19.2244 29.3332 13.3334 29.3332C11.686 29.3332 10.1259 28.9597 8.73303 28.2929C8.2543 28.0637 7.71193 27.9832 7.1992 28.1204L5.56448 28.5578C4.27604 28.9026 3.09729 27.7238 3.44203 26.4354L3.87943 24.8007C4.01661 24.2879 3.93615 23.7456 3.70695 23.2668C3.04012 21.874 2.66669 20.3138 2.66669 18.6665C2.66669 12.7755 7.44232 7.99984 13.3334 7.99984C19.2244 7.99984 24 12.7755 24 18.6665ZM8.66669 19.9998C9.40307 19.9998 10 19.4029 10 18.6665C10 17.9301 9.40307 17.3332 8.66669 17.3332C7.93031 17.3332 7.33335 17.9301 7.33335 18.6665C7.33335 19.4029 7.93031 19.9998 8.66669 19.9998ZM13.3334 19.9998C14.0697 19.9998 14.6667 19.4029 14.6667 18.6665C14.6667 17.9301 14.0697 17.3332 13.3334 17.3332C12.597 17.3332 12 17.9301 12 18.6665C12 19.4029 12.597 19.9998 13.3334 19.9998ZM18 19.9998C18.7364 19.9998 19.3334 19.4029 19.3334 18.6665C19.3334 17.9301 18.7364 17.3332 18 17.3332C17.2636 17.3332 16.6667 17.9301 16.6667 18.6665C16.6667 19.4029 17.2636 19.9998 18 19.9998Z" fill="currentColor" />
    </symbol>
    <symbol id="ruble" width="100%" height="100%" viewBox="0 0 32 32" fill="none">
      <path d="M18 14.9998H14.3334V10.9332C14.3334 10.8039 14.3334 10.7269 14.335 10.6689C14.336 10.6321 14.3374 10.6161 14.3378 10.6122C14.361 10.4713 14.4715 10.3609 14.6124 10.3376C14.6163 10.3372 14.6323 10.3359 14.6691 10.3348C14.7271 10.3333 14.8041 10.3332 14.9334 10.3332H18C19.2887 10.3332 20.3334 11.3778 20.3334 12.6665C20.3334 13.9552 19.2887 14.9998 18 14.9998Z" fill="currentColor" />
      <path fill-rule="evenodd" clip-rule="evenodd" d="M29.3334 15.9998C29.3334 23.3636 23.3638 29.3332 16 29.3332C8.63622 29.3332 2.66669 23.3636 2.66669 15.9998C2.66669 8.63604 8.63622 2.6665 16 2.6665C23.3638 2.6665 29.3334 8.63604 29.3334 15.9998ZM11 18.6665C11 18.1142 11.4477 17.6665 12 17.6665H12.3334V16.9998H12C11.4477 16.9998 11 16.5521 11 15.9998C11 15.4476 11.4477 14.9998 12 14.9998H12.3334L12.3333 10.8819C12.3331 10.6878 12.3328 10.4861 12.3621 10.3015C12.5202 9.30307 13.3033 8.52003 14.3017 8.3619C14.4863 8.33266 14.688 8.3329 14.882 8.33313L18 8.33317C20.3933 8.33317 22.3334 10.2733 22.3334 12.6665C22.3334 15.0597 20.3933 16.9998 18 16.9998H14.3334V17.6665H16C16.5523 17.6665 17 18.1142 17 18.6665C17 19.2188 16.5523 19.6665 16 19.6665H14.3334V22.6665C14.3334 23.2188 13.8856 23.6665 13.3334 23.6665C12.7811 23.6665 12.3334 23.2188 12.3334 22.6665V19.6665H12C11.4477 19.6665 11 19.2188 11 18.6665Z" fill="currentColor" />

    </symbol>
    <symbol id="note-check" width="100%" height="100%" viewBox="0 0 32 32" fill="none">
      <path d="M12.6667 2.66675C11.5621 2.66675 10.6667 3.56218 10.6667 4.66675V6.00008C10.6667 7.10465 11.5621 8.00008 12.6667 8.00008H19.3333C20.4379 8.00008 21.3333 7.10465 21.3333 6.00008V4.66675C21.3333 3.56218 20.4379 2.66675 19.3333 2.66675H12.6667Z" fill="currentColor" />
      <path fill-rule="evenodd" clip-rule="evenodd" d="M8.66667 5.38224C6.98946 5.47634 5.93064 5.7436 5.17157 6.50267C4 7.67424 4 9.55986 4 13.3311V21.3311C4 25.1023 4 26.988 5.17157 28.1595C6.34315 29.3311 8.22876 29.3311 12 29.3311H20C23.7712 29.3311 25.6569 29.3311 26.8284 28.1595C28 26.988 28 25.1023 28 21.3311V13.3311C28 9.55986 28 7.67424 26.8284 6.50267C26.0694 5.7436 25.0105 5.47634 23.3333 5.38224V6.00008C23.3333 8.20922 21.5425 10.0001 19.3333 10.0001H12.6667C10.4575 10.0001 8.66667 8.20922 8.66667 6.00008V5.38224ZM20.6823 16.7311C21.0861 16.3543 21.1079 15.7215 20.7311 15.3178C20.3542 14.914 19.7214 14.8922 19.3177 15.269L14.2857 19.9655L12.6823 18.469C12.2786 18.0922 11.6458 18.114 11.2689 18.5178C10.8921 18.9215 10.9139 19.5543 11.3177 19.9311L13.6034 22.0645C13.9876 22.4231 14.5838 22.4231 14.968 22.0645L20.6823 16.7311Z" fill="currentColor" />


    </symbol>
    <symbol id="shield-check" width="100%" height="100%" viewBox="0 0 32 32" fill="none">
      <path fill-rule="evenodd" clip-rule="evenodd" d="M4.50335 6.77663C4 7.49379 4 9.62551 4 13.889V15.9886C4 23.506 9.65195 27.1541 13.1981 28.7031C14.16 29.1233 14.641 29.3334 16 29.3334C17.359 29.3334 17.84 29.1233 18.8019 28.7031C22.348 27.1541 28 23.506 28 15.9886V13.889C28 9.62551 28 7.49379 27.4966 6.77663C26.9933 6.05947 24.9889 5.37336 20.9801 4.00114L20.2164 3.7397C18.1267 3.0244 17.0819 2.66675 16 2.66675C14.9181 2.66675 13.8733 3.0244 11.7836 3.7397L11.0199 4.00114C7.0111 5.37336 5.00671 6.05947 4.50335 6.77663ZM20.0793 13.9994C20.4471 13.5875 20.4113 12.9553 19.9993 12.5875C19.5874 12.2196 18.9552 12.2554 18.5874 12.6674L14.5714 17.1653L13.4126 15.8674C13.0448 15.4554 12.4126 15.4196 12.0007 15.7875C11.5887 16.1553 11.5529 16.7875 11.9207 17.1994L13.8255 19.3328C14.0152 19.5453 14.2866 19.6667 14.5714 19.6667C14.8563 19.6667 15.1276 19.5453 15.3174 19.3328L20.0793 13.9994Z" fill="currentColor" />
    </symbol>
    <symbol id="circle-check" width="100%" height="100%" viewBox="0 0 24 24" fill="none">
      <path fill-rule="evenodd" clip-rule="evenodd" d="M22 12C22 17.5228 17.5228 22 12 22C6.47715 22 2 17.5228 2 12C2 6.47715 6.47715 2 12 2C17.5228 2 22 6.47715 22 12ZM16.0303 8.96967C16.3232 9.26256 16.3232 9.73744 16.0303 10.0303L11.0303 15.0303C10.7374 15.3232 10.2626 15.3232 9.96967 15.0303L7.96967 13.0303C7.67678 12.7374 7.67678 12.2626 7.96967 11.9697C8.26256 11.6768 8.73744 11.6768 9.03033 11.9697L10.5 13.4393L12.7348 11.2045L14.9697 8.96967C15.2626 8.67678 15.7374 8.67678 16.0303 8.96967Z" fill="currentColor" />
    </symbol>
    <symbol id="circle-check-contur" width="100%" height="100%" viewBox="0 0 24 24" fill="none">

      <path d="M16.0303 10.0303C16.3232 9.73744 16.3232 9.26256 16.0303 8.96967C15.7374 8.67678 15.2626 8.67678 14.9697 8.96967L10.5 13.4393L9.03033 11.9697C8.73744 11.6768 8.26256 11.6768 7.96967 11.9697C7.67678 12.2626 7.67678 12.7374 7.96967 13.0303L9.96967 15.0303C10.2626 15.3232 10.7374 15.3232 11.0303 15.0303L16.0303 10.0303Z" fill="currentColor" />
      <path fill-rule="evenodd" clip-rule="evenodd" d="M12 1.25C6.06294 1.25 1.25 6.06294 1.25 12C1.25 17.9371 6.06294 22.75 12 22.75C17.9371 22.75 22.75 17.9371 22.75 12C22.75 6.06294 17.9371 1.25 12 1.25ZM2.75 12C2.75 6.89137 6.89137 2.75 12 2.75C17.1086 2.75 21.25 6.89137 21.25 12C21.25 17.1086 17.1086 21.25 12 21.25C6.89137 21.25 2.75 17.1086 2.75 12Z" fill="currentColor" />


    </symbol>
    <!--  -->
    <symbol id="map-point" width="100%" height="100%" viewBox="0 0 25 24" fill="none">
      <path fill-rule="evenodd" clip-rule="evenodd" d="M12.7113 2C8.293 2 4.71127 6.00258 4.71127 10.5C4.71127 14.9622 7.2646 19.8124 11.2483 21.6744C12.177 22.1085 13.2455 22.1085 14.1742 21.6744C18.1579 19.8124 20.7113 14.9622 20.7113 10.5C20.7113 6.00258 17.1296 2 12.7113 2ZM12.7113 12C13.8158 12 14.7113 11.1046 14.7113 10C14.7113 8.89543 13.8158 8 12.7113 8C11.6067 8 10.7113 8.89543 10.7113 10C10.7113 11.1046 11.6067 12 12.7113 12Z" fill="currentColor" />
    </symbol>
    <symbol id="whatsapp" width="100%" height="100%" viewBox="0 0 24 24" fill="none">
      <path fill-rule="evenodd" clip-rule="evenodd" d="M3.50002 12C3.50002 7.30558 7.3056 3.5 12 3.5C16.6944 3.5 20.5 7.30558 20.5 12C20.5 16.6944 16.6944 20.5 12 20.5C10.3278 20.5 8.77127 20.0182 7.45798 19.1861C7.21357 19.0313 6.91408 18.9899 6.63684 19.0726L3.75769 19.9319L4.84173 17.3953C4.96986 17.0955 4.94379 16.7521 4.77187 16.4751C3.9657 15.176 3.50002 13.6439 3.50002 12ZM12 1.5C6.20103 1.5 1.50002 6.20101 1.50002 12C1.50002 13.8381 1.97316 15.5683 2.80465 17.0727L1.08047 21.107C0.928048 21.4637 0.99561 21.8763 1.25382 22.1657C1.51203 22.4552 1.91432 22.5692 2.28599 22.4582L6.78541 21.1155C8.32245 21.9965 10.1037 22.5 12 22.5C17.799 22.5 22.5 17.799 22.5 12C22.5 6.20101 17.799 1.5 12 1.5ZM14.2925 14.1824L12.9783 15.1081C12.3628 14.7575 11.6823 14.2681 10.9997 13.5855C10.2901 12.8759 9.76402 12.1433 9.37612 11.4713L10.2113 10.7624C10.5697 10.4582 10.6678 9.94533 10.447 9.53028L9.38284 7.53028C9.23954 7.26097 8.98116 7.0718 8.68115 7.01654C8.38113 6.96129 8.07231 7.046 7.84247 7.24659L7.52696 7.52195C6.76823 8.18414 6.3195 9.2723 6.69141 10.3741C7.07698 11.5163 7.89983 13.314 9.58552 14.9997C11.3991 16.8133 13.2413 17.5275 14.3186 17.8049C15.1866 18.0283 16.008 17.7288 16.5868 17.2572L17.1783 16.7752C17.4313 16.5691 17.5678 16.2524 17.544 15.9269C17.5201 15.6014 17.3389 15.308 17.0585 15.1409L15.3802 14.1409C15.0412 13.939 14.6152 13.9552 14.2925 14.1824Z" fill="currentColor" />
    </symbol>
    <symbol id="telegram" width="100%" height="100%" viewBox="0 0 48 48" fill="none">
      <path d="M41.4193 7.30899C41.4193 7.30899 45.3046 5.79399 44.9808 9.47328C44.8729 10.9883 43.9016 16.2908 43.1461 22.0262L40.5559 39.0159C40.5559 39.0159 40.3401 41.5048 38.3974 41.9377C36.4547 42.3705 33.5408 40.4227 33.0011 39.9898C32.5694 39.6652 24.9068 34.7955 22.2086 32.4148C21.4531 31.7655 20.5897 30.4669 22.3165 28.9519L33.6487 18.1305C34.9438 16.8319 36.2389 13.8019 30.8426 17.4812L15.7331 27.7616C15.7331 27.7616 14.0063 28.8437 10.7686 27.8698L3.75342 25.7055C3.75342 25.7055 1.16321 24.0823 5.58815 22.459C16.3807 17.3729 29.6555 12.1786 41.4193 7.30899Z" fill="currentColor" />
    </symbol>
    <symbol id="widget" width="100%" height="100%" viewBox="0 0 16 16" fill="none">

      <path d="M1.33331 4.3335C1.33331 2.91928 1.33331 2.21218 1.77265 1.77284C2.21199 1.3335 2.9191 1.3335 4.33331 1.3335C5.74753 1.3335 6.45463 1.3335 6.89397 1.77284C7.33331 2.21218 7.33331 2.91928 7.33331 4.3335C7.33331 5.74771 7.33331 6.45482 6.89397 6.89416C6.45463 7.3335 5.74753 7.3335 4.33331 7.3335C2.9191 7.3335 2.21199 7.3335 1.77265 6.89416C1.33331 6.45482 1.33331 5.74771 1.33331 4.3335Z" fill="currentColor" />
      <path d="M8.66669 11.6665C8.66669 10.2523 8.66669 9.54518 9.10603 9.10584C9.54537 8.6665 10.2525 8.6665 11.6667 8.6665C13.0809 8.6665 13.788 8.6665 14.2273 9.10584C14.6667 9.54518 14.6667 10.2523 14.6667 11.6665C14.6667 13.0807 14.6667 13.7878 14.2273 14.2272C13.788 14.6665 13.0809 14.6665 11.6667 14.6665C10.2525 14.6665 9.54537 14.6665 9.10603 14.2272C8.66669 13.7878 8.66669 13.0807 8.66669 11.6665Z" fill="currentColor" />
      <path d="M1.33331 11.6665C1.33331 10.2523 1.33331 9.54518 1.77265 9.10584C2.21199 8.6665 2.9191 8.6665 4.33331 8.6665C5.74753 8.6665 6.45463 8.6665 6.89397 9.10584C7.33331 9.54518 7.33331 10.2523 7.33331 11.6665C7.33331 13.0807 7.33331 13.7878 6.89397 14.2272C6.45463 14.6665 5.74753 14.6665 4.33331 14.6665C2.9191 14.6665 2.21199 14.6665 1.77265 14.2272C1.33331 13.7878 1.33331 13.0807 1.33331 11.6665Z" fill="currentColor" />
      <path d="M8.66669 4.3335C8.66669 2.91928 8.66669 2.21218 9.10603 1.77284C9.54537 1.3335 10.2525 1.3335 11.6667 1.3335C13.0809 1.3335 13.788 1.3335 14.2273 1.77284C14.6667 2.21218 14.6667 2.91928 14.6667 4.3335C14.6667 5.74771 14.6667 6.45482 14.2273 6.89416C13.788 7.3335 13.0809 7.3335 11.6667 7.3335C10.2525 7.3335 9.54537 7.3335 9.10603 6.89416C8.66669 6.45482 8.66669 5.74771 8.66669 4.3335Z" fill="currentColor" />


    </symbol>
    <symbol id="star" width="100%" height="100%" viewBox="0 0 18 19" fill="none">
      <path d="M16.4998 7.75249C16.4524 7.6153 16.3663 7.49481 16.2518 7.40561C16.1373 7.31642 15.9994 7.26236 15.8548 7.24999L11.5873 6.62749L9.6748 2.74999C9.61339 2.62318 9.5175 2.51624 9.39812 2.44142C9.27874 2.36659 9.14069 2.3269 8.9998 2.3269C8.85891 2.3269 8.72086 2.36659 8.60148 2.44142C8.4821 2.51624 8.38621 2.62318 8.3248 2.74999L6.4123 6.61999L2.1448 7.24999C2.00599 7.26972 1.87549 7.32796 1.76811 7.41811C1.66073 7.50825 1.58077 7.62669 1.5373 7.75999C1.49751 7.89024 1.49394 8.02888 1.52697 8.16101C1.56 8.29314 1.62839 8.41378 1.7248 8.50999L4.8223 11.51L4.0723 15.77C4.04553 15.9106 4.05955 16.0559 4.1127 16.1888C4.16586 16.3217 4.25594 16.4366 4.3723 16.52C4.48571 16.6011 4.61948 16.6489 4.75859 16.6582C4.89769 16.6675 5.03663 16.6378 5.1598 16.5725L8.9998 14.57L12.8248 16.58C12.9301 16.6394 13.0489 16.6704 13.1698 16.67C13.3287 16.6706 13.4836 16.6207 13.6123 16.5275C13.7287 16.4441 13.8187 16.3292 13.8719 16.1963C13.9251 16.0634 13.9391 15.9181 13.9123 15.7775L13.1623 11.5175L16.2598 8.51749C16.3681 8.42575 16.4481 8.30516 16.4906 8.16975C16.5331 8.03433 16.5363 7.88964 16.4998 7.75249Z" fill="currentColor" />
    </symbol>
    <symbol id="clock" width="100%" height="100%" viewBox="0 0 20 20" fill="none">
      <path d="M18.3337 9.99984C18.3337 14.6022 14.6027 18.3332 10.0003 18.3332C5.39795 18.3332 1.66699 14.6022 1.66699 9.99984C1.66699 5.39746 5.39795 1.6665 10.0003 1.6665C14.6027 1.6665 18.3337 5.39746 18.3337 9.99984Z" fill="currentColor" />
      <path fill-rule="evenodd" clip-rule="evenodd" d="M10.0003 6.0415C10.3455 6.0415 10.6253 6.32133 10.6253 6.6665V9.74095L12.5256 11.6412C12.7697 11.8853 12.7697 12.281 12.5256 12.5251C12.2815 12.7692 11.8858 12.7692 11.6417 12.5251L9.55838 10.4418C9.44117 10.3246 9.37533 10.1656 9.37533 9.99984V6.6665C9.37533 6.32133 9.65515 6.0415 10.0003 6.0415Z" fill="white" />
    </symbol>
    <symbol id="message-heart" width="100%" height="100%" viewBox="0 0 20 20" fill="none">

      <path fill-rule="evenodd" clip-rule="evenodd" d="M18.3337 10.0001C18.3337 14.6025 14.6027 18.3334 10.0003 18.3334C8.66726 18.3334 7.4073 18.0204 6.28993 17.4639C5.993 17.316 5.6536 17.2667 5.33315 17.3525L3.47812 17.8488C2.67284 18.0643 1.93612 17.3276 2.15158 16.5223L2.64792 14.6673C2.73367 14.3468 2.68444 14.0074 2.53654 13.7105C1.98001 12.5931 1.66699 11.3331 1.66699 10.0001C1.66699 5.39771 5.39795 1.66675 10.0003 1.66675C14.6027 1.66675 18.3337 5.39771 18.3337 10.0001ZM6.25033 9.25709C6.25033 10.3974 7.34936 11.5939 8.35747 12.4515C9.04403 13.0356 9.38731 13.3276 10.0003 13.3276C10.6134 13.3276 10.9566 13.0356 11.6432 12.4515C12.6513 11.5939 13.7503 10.3974 13.7503 9.25708C13.7503 7.02612 11.6878 6.19318 10.0003 7.91658C8.31289 6.19318 6.25033 7.02611 6.25033 9.25709Z" fill="currentColor" />


    </symbol>
    <!--  -->
    <!--  -->
    <!--  -->
    <symbol id="calendar" width="100%" height="100%" viewBox="0 0 32 32" fill="none">
      <path d="M10.3334 3.33325C10.3334 2.78097 9.8857 2.33325 9.33341 2.33325C8.78113 2.33325 8.33341 2.78097 8.33341 3.33325V5.43893C6.41431 5.5926 5.15444 5.96975 4.22885 6.89535C3.30325 7.82095 2.9261 9.08081 2.77242 10.9999H29.2277C29.0741 9.08081 28.6969 7.82095 27.7713 6.89535C26.8457 5.96975 25.5859 5.5926 23.6667 5.43893V3.33325C23.6667 2.78097 23.219 2.33325 22.6667 2.33325C22.1145 2.33325 21.6667 2.78097 21.6667 3.33325V5.35045C20.7797 5.33325 19.7855 5.33325 18.6667 5.33325H13.3334C12.2147 5.33325 11.2204 5.33325 10.3334 5.35045V3.33325Z" fill="currentColor" />
      <path fill-rule="evenodd" clip-rule="evenodd" d="M2.66675 15.9999C2.66675 14.8812 2.66675 13.8869 2.68395 12.9999H29.3162C29.3334 13.8869 29.3334 14.8812 29.3334 15.9999V18.6666C29.3334 23.6949 29.3334 26.2091 27.7713 27.7712C26.2092 29.3333 23.6951 29.3333 18.6667 29.3333H13.3334C8.3051 29.3333 5.79094 29.3333 4.22885 27.7712C2.66675 26.2091 2.66675 23.6949 2.66675 18.6666V15.9999ZM22.6667 18.6666C23.4031 18.6666 24.0001 18.0696 24.0001 17.3333C24.0001 16.5969 23.4031 15.9999 22.6667 15.9999C21.9304 15.9999 21.3334 16.5969 21.3334 17.3333C21.3334 18.0696 21.9304 18.6666 22.6667 18.6666ZM22.6667 23.9999C23.4031 23.9999 24.0001 23.403 24.0001 22.6666C24.0001 21.9302 23.4031 21.3333 22.6667 21.3333C21.9304 21.3333 21.3334 21.9302 21.3334 22.6666C21.3334 23.403 21.9304 23.9999 22.6667 23.9999ZM17.3334 17.3333C17.3334 18.0696 16.7365 18.6666 16.0001 18.6666C15.2637 18.6666 14.6667 18.0696 14.6667 17.3333C14.6667 16.5969 15.2637 15.9999 16.0001 15.9999C16.7365 15.9999 17.3334 16.5969 17.3334 17.3333ZM17.3334 22.6666C17.3334 23.403 16.7365 23.9999 16.0001 23.9999C15.2637 23.9999 14.6667 23.403 14.6667 22.6666C14.6667 21.9302 15.2637 21.3333 16.0001 21.3333C16.7365 21.3333 17.3334 21.9302 17.3334 22.6666ZM9.33341 18.6666C10.0698 18.6666 10.6667 18.0696 10.6667 17.3333C10.6667 16.5969 10.0698 15.9999 9.33341 15.9999C8.59703 15.9999 8.00008 16.5969 8.00008 17.3333C8.00008 18.0696 8.59703 18.6666 9.33341 18.6666ZM9.33341 23.9999C10.0698 23.9999 10.6667 23.403 10.6667 22.6666C10.6667 21.9302 10.0698 21.3333 9.33341 21.3333C8.59703 21.3333 8.00008 21.9302 8.00008 22.6666C8.00008 23.403 8.59703 23.9999 9.33341 23.9999Z" fill="currentColor" />

    </symbol>
    <symbol id="user" width="100%" height="100%" viewBox="0 0 24 24" fill="none">
      <circle cx="12" cy="6" r="4" fill="currentColor" />
      <path d="M20 17.5C20 19.9853 20 22 12 22C4 22 4 19.9853 4 17.5C4 15.0147 7.58172 13 12 13C16.4183 13 20 15.0147 20 17.5Z" fill="currentColor" />
    </symbol>
    <!--  -->
    <!--  -->
    <!--  -->
  </defs>
</svg>