<svg version="1.1" id="Layer_1" xmlns="http://www.w3.org/2000/svg" xmlns:xlink="http://www.w3.org/1999/xlink" x="0px" y="0px"
	 viewBox="0 0 131.3 84.4" style="enable-background:new 0 0 131.3 84.4;" xml:space="preserve">
<style type="text/css">
	.st0{fill-rule:evenodd;clip-rule:evenodd;fill:#4FB921;}
	.st1{fill-rule:evenodd;clip-rule:evenodd;fill:#00AEEF;}
	.st2{fill:#4FB921;}
	.st3{fill:#00AEEF;}
</style>
<g>
	<path class="st0" d="M23.8,14.6C20.3,2.4,12.7-2.6,0,1.3c4,0.4,7.8,4.3,12.4,10.9c2.1,3,5,4.2,8,3.8c0.4,2.3,0.8,4.6,1.1,6.8
		c0.9,0,1.7,0,2.6,0c-1.9-8-5.5-14.9-13-19.5C15.9,4.3,20.2,8.2,23.8,14.6L23.8,14.6z"/>
	<path class="st0" d="M34.6,12.8c-4.5,2.9-7.1,6.4-9.1,10c0.7,0,1.4,0,2.1,0c0.3-0.5,0.7-0.9,1-1.4c3.1,0,6.2-0.7,8.9-4.5
		c3-4.3,5.7-6,8.3-6.9C34.4,6.1,27,10.9,24.9,20.2C27.9,16,31.8,13.2,34.6,12.8L34.6,12.8z"/>
	<path class="st0" d="M11.2,23.3L11.2,23.3c0-0.8,0.6-1.4,1.4-1.4h8.2v0.5v2.3V40v2.1v0.3C11.7,44.3,4.9,52.3,4.9,62
		c0,11.1,9,20.1,20.1,20.1c8.9,0,16.5-5.8,19.1-13.8c1-0.7,2-1.7,3.1-2.8c-1.7,10.7-10.9,19-22.1,19c-12.4,0-22.4-10-22.4-22.4
		C2.5,52,9,43.6,18,40.7v-16h-5.4C11.8,24.7,11.2,24.1,11.2,23.3L11.2,23.3z"/>
	<path class="st1" d="M44.7,58.4C29.5,51.4,17,51.8,9.5,66.1c5.3-4,11.9-4.8,19.9-1.7C39.8,68.5,44,66.1,47,62
		C46.2,60.8,45.6,59.6,44.7,58.4L44.7,58.4z"/>
	<path class="st0" d="M25.8,67.8c-6-1.8-11.8-2.3-16.6,2.4c5.6,8.5,14.6,11,25.9,9.3c2.1-1,4.2-1.9,6.3-2.9c3.1-2.7,4.9-6.3,5.7-11
		C40.1,72.3,33.8,71.7,25.8,67.8L25.8,67.8z"/>
	<path class="st1" d="M31.1,40.5c9.4,2.7,16.2,11.3,16.2,21.5c-0.7,1-1.6,1.8-2.5,2.5c0.1-0.8,0.1-1.6,0.1-2.4
		c0-9.9-7.1-18.1-16.5-19.8v-0.2h-0.2V24.7v-2.3v-0.5h8.2c0.8,0,1.4,0.6,1.4,1.4l0,0c0,0.8-0.6,1.4-1.4,1.4h-5.4V40.5L31.1,40.5z"/>
	<path class="st2" d="M60.9,35.9v2.5c0,0.7,0.2,1.2,0.5,1.5c0.3,0.3,0.8,0.4,1.4,0.4c0.6,0,1-0.1,1.4-0.4c0.3-0.3,0.5-0.8,0.5-1.5
		v-4.2h-3.4v-2.8h3.4v-3.5c0-0.7-0.2-1.2-0.5-1.5c-0.3-0.3-0.8-0.4-1.4-0.4c-0.6,0-1,0.1-1.4,0.4c-0.3,0.3-0.5,0.8-0.5,1.5v1.8h-3.4
		v-1.6c0-1.6,0.5-2.8,1.4-3.6c0.9-0.8,2.3-1.3,4.1-1.3c1.8,0,3.2,0.4,4.1,1.3c0.9,0.8,1.4,2,1.4,3.6v10.1c0,1.6-0.5,2.8-1.4,3.6
		c-0.9,0.8-2.3,1.3-4.1,1.3c-1.8,0-3.2-0.4-4.1-1.3c-0.9-0.8-1.4-2.1-1.4-3.6v-2.3H60.9L60.9,35.9z M75.7,35.1l-1.1,1.8v6h-3.7V23.4
		h3.7v8.5l4.8-8.5h3.7L78,32.1l5.1,10.8h-3.8L75.7,35.1L75.7,35.1z M88.2,38.4c0,0.7,0.2,1.2,0.5,1.5c0.3,0.3,0.8,0.4,1.4,0.4
		c0.6,0,1-0.1,1.4-0.4c0.3-0.3,0.5-0.8,0.5-1.5V27.9c0-0.7-0.2-1.2-0.5-1.5c-0.3-0.3-0.8-0.4-1.4-0.4c-0.6,0-1,0.1-1.4,0.4
		c-0.3,0.3-0.5,0.8-0.5,1.5V38.4L88.2,38.4z M84.5,28.1c0-1.6,0.5-2.8,1.4-3.6c1-0.8,2.4-1.3,4.2-1.3c1.8,0,3.2,0.4,4.2,1.3
		c1,0.8,1.4,2,1.4,3.6v10.1c0,1.6-0.5,2.8-1.4,3.6c-1,0.8-2.4,1.3-4.2,1.3c-1.8,0-3.2-0.4-4.2-1.3c-1-0.8-1.4-2.1-1.4-3.6V28.1
		L84.5,28.1z M97.9,31.7h6.7v2.8h-6.7V31.7L97.9,31.7z M114.5,28.2c0-0.9-0.2-1.5-0.5-1.8c-0.3-0.3-0.8-0.5-1.4-0.5
		c-0.6,0-1,0.1-1.4,0.4c-0.3,0.3-0.5,0.8-0.5,1.5v2.1h-3.5v-1.9c0-1.6,0.5-2.8,1.4-3.6c0.9-0.8,2.3-1.3,4.1-1.3
		c1.8,0,3.2,0.4,4.1,1.3c0.9,0.8,1.4,2,1.4,3.6c0,1-0.2,1.9-0.5,2.8c-0.4,0.8-0.8,1.6-1.4,2.2c-0.5,0.7-1.1,1.3-1.8,1.9
		c-0.6,0.6-1.2,1.1-1.8,1.6c-0.5,0.5-1,1-1.4,1.5c-0.4,0.5-0.5,1-0.5,1.5c0,0.2,0,0.3,0,0.4h7v2.8h-10.7v-2.4c0-0.9,0.2-1.8,0.5-2.5
		c0.4-0.7,0.8-1.4,1.4-2c0.5-0.6,1.1-1.2,1.8-1.7c0.6-0.5,1.2-1.1,1.8-1.7c0.5-0.6,1-1.2,1.4-1.9C114.3,29.9,114.5,29.1,114.5,28.2
		L114.5,28.2z M127.6,28.2c0-0.9-0.2-1.5-0.5-1.8c-0.3-0.3-0.8-0.5-1.4-0.5c-0.6,0-1,0.1-1.4,0.4c-0.3,0.3-0.5,0.8-0.5,1.5v1.2h-3.5
		v-1.1c0-1.6,0.5-2.8,1.4-3.6c0.9-0.8,2.3-1.3,4.1-1.3c1.8,0,3.2,0.4,4.1,1.3c0.9,0.8,1.4,2,1.4,3.6v0.5c0,2.1-0.9,3.4-2.6,4
		c0.9,0.3,1.6,0.8,2,1.5c0.4,0.7,0.6,1.5,0.6,2.5v1.5c0,1.6-0.5,2.8-1.4,3.6c-0.9,0.8-2.3,1.3-4.1,1.3c-1.8,0-3.2-0.4-4.1-1.3
		c-0.9-0.8-1.4-2.1-1.4-3.6v-1.6h3.5v1.8c0,0.7,0.2,1.2,0.5,1.5c0.3,0.3,0.8,0.4,1.4,0.4c0.6,0,1-0.1,1.4-0.4
		c0.3-0.3,0.5-0.9,0.5-1.7v-1.5c0-0.9-0.2-1.5-0.6-1.9c-0.4-0.4-1-0.6-1.8-0.6h-1.2v-2.8h1.4c0.7,0,1.2-0.1,1.6-0.4
		c0.4-0.3,0.6-0.8,0.6-1.6V28.2L127.6,28.2z"/>
	<path class="st3" d="M62.5,58.1h-1.8v-3.7l-1.1,3.7h-1.8v-8.1h1.8v3.7l1.2-3.7h1.8V58.1L62.5,58.1z M68.3,53.5h-2.1v-1.4
		c0-0.4,0-0.7-0.1-0.8c0-0.1-0.1-0.2-0.3-0.2c-0.2,0-0.3,0.1-0.3,0.2c0,0.1-0.1,0.4-0.1,0.8v3.8c0,0.4,0,0.7,0.1,0.8
		c0,0.1,0.2,0.2,0.3,0.2c0.2,0,0.3-0.1,0.3-0.2c0-0.1,0.1-0.4,0.1-0.9v-1h2.1v0.3c0,0.8-0.1,1.4-0.2,1.8c-0.1,0.4-0.4,0.7-0.8,0.9
		c-0.4,0.3-0.9,0.4-1.5,0.4c-0.6,0-1.1-0.1-1.5-0.3c-0.4-0.2-0.7-0.5-0.8-0.9s-0.2-1-0.2-1.8v-2.4c0-0.6,0-1,0.1-1.3
		c0-0.3,0.2-0.6,0.4-0.8c0.2-0.3,0.5-0.5,0.8-0.6c0.4-0.2,0.8-0.2,1.2-0.2c0.6,0,1.1,0.1,1.5,0.4c0.4,0.2,0.7,0.5,0.8,0.9
		c0.1,0.4,0.2,0.9,0.2,1.7V53.5L68.3,53.5z M73.9,58.1h-2.1v-6.5h-0.6v6.5h-2.1v-8.1h4.9V58.1L73.9,58.1z M79.7,56.2
		c0,0.6-0.1,1-0.2,1.3c-0.2,0.3-0.4,0.4-0.7,0.5c-0.3,0.1-0.8,0.1-1.5,0.1h-2.4v-8.1h2.1v2.8h0.3c0.7,0,1.1,0,1.5,0.1
		c0.3,0.1,0.6,0.2,0.8,0.5c0.2,0.3,0.2,0.7,0.2,1.2V56.2L79.7,56.2z M77.6,55.9v-1.2c0-0.3,0-0.6-0.1-0.6c-0.1-0.1-0.3-0.1-0.6-0.1
		v2.7c0.3,0,0.5,0,0.5-0.1C77.6,56.5,77.6,56.3,77.6,55.9L77.6,55.9z M82.6,58.1h-2.1v-8.1h2.1V58.1L82.6,58.1z M87.6,49.9v1.6h-1.2
		v6.5h-2.1v-6.5H83v-1.6H87.6L87.6,49.9z M91.7,49.9l1.2,8.1h-2.2l-0.1-1.5h-0.8l-0.1,1.5h-2.2l1.1-8.1H91.7L91.7,49.9z M90.6,55.2
		c-0.1-0.9-0.2-2.1-0.3-3.4c-0.2,1.6-0.3,2.7-0.4,3.4H90.6L90.6,55.2z M97.6,49.9v1.6h-1.2v6.5h-2.1v-6.5h-1.3v-1.6H97.6L97.6,49.9z
		 M98.1,49.9h3.5v1.6h-1.4v1.6h1.3v1.5h-1.3v1.8h1.6v1.6h-3.7V49.9L98.1,49.9z M107.5,58.1h-2.1v-6.5h-0.6v4.6c0,0.6-0.1,1-0.2,1.3
		c-0.2,0.3-0.4,0.4-0.7,0.5c-0.3,0.1-0.8,0.1-1.5,0.1H102v-1.4c0.3,0,0.4,0,0.5-0.1c0.1-0.1,0.1-0.3,0.1-0.7v-6h4.9V58.1L107.5,58.1
		z M113.3,56.2c0,0.6-0.1,1-0.2,1.3c-0.2,0.3-0.4,0.4-0.7,0.5c-0.3,0.1-0.8,0.1-1.5,0.1h-2.4v-8.1h2.1v2.8h0.3c0.7,0,1.1,0,1.5,0.1
		c0.3,0.1,0.6,0.2,0.8,0.5c0.2,0.3,0.2,0.7,0.2,1.2V56.2L113.3,56.2z M111.2,55.9v-1.2c0-0.3,0-0.6-0.1-0.6
		c-0.1-0.1-0.3-0.1-0.6-0.1v2.7c0.3,0,0.5,0,0.5-0.1C111.1,56.5,111.2,56.3,111.2,55.9L111.2,55.9z M118.9,49.9v8.1h-2.1v-3.4h-0.6
		v3.4H114v-8.1h2.1v2.9h0.6v-2.9H118.9L118.9,49.9z M123.4,49.9l1.2,8.1h-2.2l-0.1-1.5h-0.8l-0.1,1.5h-2.2l1.1-8.1H123.4L123.4,49.9
		z M122.3,55.2c-0.1-0.9-0.2-2.1-0.3-3.4c-0.2,1.6-0.3,2.7-0.4,3.4H122.3L122.3,55.2z M129.7,58.1h-2.1v-3.7c-0.3,0-0.4,0-0.5,0.1
		c-0.1,0.1-0.1,0.3-0.1,0.6v2.9h-2v-2.4c0-0.4,0-0.7,0.1-0.9c0-0.2,0.1-0.4,0.3-0.5c0.2-0.1,0.4-0.3,0.8-0.4c-0.5,0-0.8-0.2-0.9-0.4
		c-0.1-0.2-0.2-0.7-0.2-1.3c0-0.5,0.1-1,0.2-1.3c0.1-0.3,0.3-0.5,0.6-0.7s0.5-0.2,0.9-0.2c0.3,0,0.9,0,1.6,0h1.5V58.1L129.7,58.1z
		 M127.6,53.1v-1.8h-0.1c-0.2,0-0.3,0-0.4,0.1c-0.1,0.1-0.1,0.2-0.1,0.5v0.4c0,0.3,0,0.5,0.1,0.6C127.1,53.1,127.3,53.1,127.6,53.1
		L127.6,53.1z M63,70.6h-2.1v-6.5h-0.6v4.6c0,0.6-0.1,1-0.2,1.3c-0.2,0.3-0.4,0.4-0.7,0.5c-0.3,0.1-0.8,0.1-1.5,0.1h-0.3v-1.4
		c0.3,0,0.4,0,0.5-0.1c0.1-0.1,0.1-0.3,0.1-0.7v-6H63V70.6L63,70.6z M67.5,62.5l1.2,8.1h-2.2l-0.1-1.5h-0.8l-0.1,1.5h-2.2l1.1-8.1
		H67.5L67.5,62.5z M66.4,67.7c-0.1-0.9-0.2-2.1-0.3-3.4c-0.2,1.6-0.3,2.7-0.4,3.4H66.4L66.4,67.7z M74,68.7c0,0.6-0.1,1-0.2,1.3
		c-0.2,0.3-0.4,0.4-0.7,0.5c-0.3,0.1-0.8,0.1-1.5,0.1H69v-8.1h4.1v1.4h-2v1.4h0.3c0.7,0,1.1,0,1.5,0.1c0.3,0.1,0.6,0.2,0.8,0.5
		c0.2,0.3,0.2,0.7,0.2,1.2V68.7L74,68.7z M71.9,68.5v-1.2c0-0.3,0-0.6-0.1-0.6c-0.1-0.1-0.3-0.1-0.6-0.1v2.7c0.3,0,0.5,0,0.5-0.1
		C71.8,69.1,71.9,68.9,71.9,68.5L71.9,68.5z M79.6,67.3c0,0.8,0,1.4-0.1,1.7c0,0.3-0.2,0.7-0.4,0.9c-0.2,0.3-0.5,0.5-0.8,0.6
		c-0.3,0.2-0.7,0.2-1.2,0.2c-0.4,0-0.8-0.1-1.2-0.2c-0.3-0.1-0.6-0.4-0.8-0.6c-0.2-0.3-0.3-0.6-0.4-0.9c0-0.3-0.1-0.9-0.1-1.8v-1.4
		c0-0.8,0-1.4,0.1-1.7c0-0.3,0.2-0.7,0.4-0.9c0.2-0.3,0.5-0.5,0.8-0.6c0.3-0.2,0.7-0.2,1.2-0.2c0.4,0,0.8,0.1,1.2,0.2
		c0.3,0.1,0.6,0.4,0.8,0.6c0.2,0.3,0.3,0.6,0.4,0.9c0,0.3,0.1,0.9,0.1,1.8V67.3L79.6,67.3z M77.4,64.6c0-0.4,0-0.6-0.1-0.7
		c0-0.1-0.1-0.2-0.3-0.2c-0.1,0-0.2,0-0.2,0.1c-0.1,0.1-0.1,0.3-0.1,0.8v3.8c0,0.5,0,0.8,0.1,0.9c0,0.1,0.1,0.2,0.3,0.2
		c0.1,0,0.2-0.1,0.3-0.2c0-0.1,0.1-0.4,0.1-0.9V64.6L77.4,64.6z M80.4,62.5h2.1c0.6,0,1,0,1.3,0.1c0.3,0.1,0.5,0.2,0.7,0.4
		c0.2,0.2,0.3,0.4,0.3,0.6c0.1,0.2,0.1,0.6,0.1,1.1v0.7c0,0.5-0.1,0.9-0.2,1.1c-0.1,0.2-0.3,0.4-0.6,0.5c-0.3,0.1-0.7,0.2-1.1,0.2
		h-0.6v3.3h-2.1V62.5L80.4,62.5z M82.5,63.9V66c0.1,0,0.1,0,0.2,0c0.2,0,0.3,0,0.4-0.1c0.1-0.1,0.1-0.3,0.1-0.6v-0.7
		c0-0.3,0-0.5-0.1-0.5C82.9,63.9,82.7,63.9,82.5,63.9L82.5,63.9z M89.2,62.5l1.2,8.1h-2.2l-0.1-1.5h-0.8l-0.1,1.5H85l1.1-8.1H89.2
		L89.2,62.5z M88,67.7c-0.1-0.9-0.2-2.1-0.3-3.4c-0.2,1.6-0.3,2.7-0.4,3.4H88L88,67.7z M95,62.5v1.6h-1.2v6.5h-2.1v-6.5h-1.3v-1.6
		H95L95,62.5z M100.3,67.3c0,0.8,0,1.4-0.1,1.7c0,0.3-0.2,0.7-0.4,0.9c-0.2,0.3-0.5,0.5-0.8,0.6c-0.3,0.2-0.7,0.2-1.2,0.2
		c-0.4,0-0.8-0.1-1.2-0.2c-0.3-0.1-0.6-0.4-0.8-0.6c-0.2-0.3-0.3-0.6-0.4-0.9c0-0.3-0.1-0.9-0.1-1.8v-1.4c0-0.8,0-1.4,0.1-1.7
		c0-0.3,0.2-0.7,0.4-0.9c0.2-0.3,0.5-0.5,0.8-0.6c0.3-0.2,0.7-0.2,1.2-0.2c0.4,0,0.8,0.1,1.2,0.2c0.3,0.1,0.6,0.4,0.8,0.6
		c0.2,0.3,0.3,0.6,0.4,0.9c0,0.3,0.1,0.9,0.1,1.8V67.3L100.3,67.3z M98.2,64.6c0-0.4,0-0.6-0.1-0.7c0-0.1-0.1-0.2-0.3-0.2
		c-0.1,0-0.2,0-0.2,0.1c-0.1,0.1-0.1,0.3-0.1,0.8v3.8c0,0.5,0,0.8,0.1,0.9c0,0.1,0.1,0.2,0.3,0.2c0.1,0,0.2-0.1,0.3-0.2
		c0-0.1,0.1-0.4,0.1-0.9V64.6L98.2,64.6z M101.1,62.5h2.1c0.6,0,1,0,1.3,0.1c0.3,0.1,0.5,0.2,0.7,0.4c0.2,0.2,0.3,0.4,0.3,0.6
		c0.1,0.2,0.1,0.6,0.1,1.1v0.7c0,0.5-0.1,0.9-0.2,1.1c-0.1,0.2-0.3,0.4-0.6,0.5c-0.3,0.1-0.7,0.2-1.1,0.2h-0.6v3.3h-2.1V62.5
		L101.1,62.5z M103.2,63.9V66c0.1,0,0.1,0,0.2,0c0.2,0,0.3,0,0.4-0.1c0.1-0.1,0.1-0.3,0.1-0.6v-0.7c0-0.3,0-0.5-0.1-0.5
		C103.7,63.9,103.5,63.9,103.2,63.9L103.2,63.9z M111,70.6h-1.8v-3.7l-1.1,3.7h-1.8v-8.1h1.8v3.7l1.2-3.7h1.8V70.6L111,70.6z
		 M116.6,70.6h-2.1V67c-0.3,0-0.4,0-0.5,0.1c-0.1,0.1-0.1,0.3-0.1,0.6v2.9h-2v-2.4c0-0.4,0-0.7,0.1-0.9c0-0.2,0.1-0.4,0.3-0.5
		c0.2-0.1,0.4-0.3,0.8-0.4c-0.5,0-0.8-0.2-0.9-0.4c-0.1-0.2-0.2-0.7-0.2-1.3c0-0.5,0.1-1,0.2-1.3c0.1-0.3,0.3-0.5,0.6-0.7
		c0.3-0.1,0.5-0.2,0.9-0.2c0.3,0,0.9,0,1.6,0h1.5V70.6L116.6,70.6z M114.4,65.7v-1.8h-0.1c-0.2,0-0.3,0-0.4,0.1
		c-0.1,0.1-0.1,0.2-0.1,0.5V65c0,0.3,0,0.5,0.1,0.6C114,65.7,114.2,65.7,114.4,65.7L114.4,65.7z"/>
</g>
</svg>
